<mxfile host="app.diagrams.net" modified="2021-05-01T17:07:08.283Z" agent="5.0 (Windows NT 10.0; Win64; x64) AppleWebKit/537.36 (KHTML, like Gecko) Chrome/90.0.4430.93 Safari/537.36" etag="XxShfjHPC5QM_Rflu8DA" version="14.6.6" type="github">
  <diagram id="Ng2BqvU0paFUUojmLcuE" name="Page-1">
    <mxGraphModel dx="836" dy="745" grid="1" gridSize="10" guides="1" tooltips="1" connect="1" arrows="1" fold="1" page="1" pageScale="1" pageWidth="827" pageHeight="1169" math="0" shadow="0">
      <root>
        <mxCell id="0" />
        <mxCell id="1" parent="0" />
        <mxCell id="sRjlCFk46RuaAmub3R1Q-1" value="Qwikel" style="shape=umlActor;verticalLabelPosition=bottom;verticalAlign=top;html=1;outlineConnect=0;" vertex="1" parent="1">
          <mxGeometry x="40" y="340" width="30" height="60" as="geometry" />
        </mxCell>
        <mxCell id="sRjlCFk46RuaAmub3R1Q-2" value="Load *.bpmn file" style="ellipse;whiteSpace=wrap;html=1;" vertex="1" parent="1">
          <mxGeometry x="200" y="200" width="240" height="80" as="geometry" />
        </mxCell>
        <mxCell id="sRjlCFk46RuaAmub3R1Q-3" value="" style="endArrow=none;html=1;entryX=0;entryY=0.5;entryDx=0;entryDy=0;exitX=1;exitY=0.3333333333333333;exitDx=0;exitDy=0;exitPerimeter=0;" edge="1" parent="1" source="sRjlCFk46RuaAmub3R1Q-1" target="sRjlCFk46RuaAmub3R1Q-2">
          <mxGeometry width="50" height="50" relative="1" as="geometry">
            <mxPoint x="390" y="410" as="sourcePoint" />
            <mxPoint x="440" y="360" as="targetPoint" />
          </mxGeometry>
        </mxCell>
        <mxCell id="sRjlCFk46RuaAmub3R1Q-5" value="Run *.bpmn process" style="ellipse;whiteSpace=wrap;html=1;" vertex="1" parent="1">
          <mxGeometry x="200" y="320" width="240" height="80" as="geometry" />
        </mxCell>
        <mxCell id="sRjlCFk46RuaAmub3R1Q-6" value="" style="endArrow=none;html=1;entryX=0;entryY=0.5;entryDx=0;entryDy=0;exitX=1;exitY=0.3333333333333333;exitDx=0;exitDy=0;exitPerimeter=0;" edge="1" parent="1" source="sRjlCFk46RuaAmub3R1Q-1" target="sRjlCFk46RuaAmub3R1Q-5">
          <mxGeometry width="50" height="50" relative="1" as="geometry">
            <mxPoint x="70" y="360" as="sourcePoint" />
            <mxPoint x="200" y="430" as="targetPoint" />
          </mxGeometry>
        </mxCell>
        <mxCell id="sRjlCFk46RuaAmub3R1Q-7" value="Run script from process" style="ellipse;whiteSpace=wrap;html=1;" vertex="1" parent="1">
          <mxGeometry x="200" y="440" width="240" height="80" as="geometry" />
        </mxCell>
        <mxCell id="sRjlCFk46RuaAmub3R1Q-8" value="" style="endArrow=none;html=1;entryX=0;entryY=0.5;entryDx=0;entryDy=0;exitX=1;exitY=0.3333333333333333;exitDx=0;exitDy=0;exitPerimeter=0;" edge="1" parent="1" source="sRjlCFk46RuaAmub3R1Q-1" target="sRjlCFk46RuaAmub3R1Q-7">
          <mxGeometry width="50" height="50" relative="1" as="geometry">
            <mxPoint x="120" y="330" as="sourcePoint" />
            <mxPoint x="210" y="370" as="targetPoint" />
          </mxGeometry>
        </mxCell>
        <mxCell id="sRjlCFk46RuaAmub3R1Q-10" value="" style="endArrow=classic;html=1;exitX=1;exitY=0.5;exitDx=0;exitDy=0;entryX=0;entryY=0.5;entryDx=0;entryDy=0;" edge="1" parent="1" source="sRjlCFk46RuaAmub3R1Q-7" target="sRjlCFk46RuaAmub3R1Q-12">
          <mxGeometry relative="1" as="geometry">
            <mxPoint x="460" y="460" as="sourcePoint" />
            <mxPoint x="560" y="460" as="targetPoint" />
          </mxGeometry>
        </mxCell>
        <mxCell id="sRjlCFk46RuaAmub3R1Q-11" value="Include" style="edgeLabel;resizable=0;html=1;align=center;verticalAlign=middle;" connectable="0" vertex="1" parent="sRjlCFk46RuaAmub3R1Q-10">
          <mxGeometry relative="1" as="geometry" />
        </mxCell>
        <mxCell id="sRjlCFk46RuaAmub3R1Q-12" value="in this machine" style="ellipse;whiteSpace=wrap;html=1;" vertex="1" parent="1">
          <mxGeometry x="520" y="400" width="240" height="80" as="geometry" />
        </mxCell>
        <mxCell id="sRjlCFk46RuaAmub3R1Q-13" value="in remote machine" style="ellipse;whiteSpace=wrap;html=1;" vertex="1" parent="1">
          <mxGeometry x="520" y="480" width="240" height="80" as="geometry" />
        </mxCell>
        <mxCell id="sRjlCFk46RuaAmub3R1Q-17" value="" style="endArrow=classic;html=1;exitX=1;exitY=0.5;exitDx=0;exitDy=0;entryX=0;entryY=0.5;entryDx=0;entryDy=0;" edge="1" parent="1" source="sRjlCFk46RuaAmub3R1Q-7" target="sRjlCFk46RuaAmub3R1Q-13">
          <mxGeometry relative="1" as="geometry">
            <mxPoint x="440" y="610" as="sourcePoint" />
            <mxPoint x="520" y="570" as="targetPoint" />
          </mxGeometry>
        </mxCell>
        <mxCell id="sRjlCFk46RuaAmub3R1Q-18" value="Include" style="edgeLabel;resizable=0;html=1;align=center;verticalAlign=middle;" connectable="0" vertex="1" parent="sRjlCFk46RuaAmub3R1Q-17">
          <mxGeometry relative="1" as="geometry" />
        </mxCell>
        <mxCell id="sRjlCFk46RuaAmub3R1Q-20" value="Send message" style="ellipse;whiteSpace=wrap;html=1;" vertex="1" parent="1">
          <mxGeometry x="200" y="560" width="240" height="80" as="geometry" />
        </mxCell>
        <mxCell id="sRjlCFk46RuaAmub3R1Q-21" value="" style="endArrow=none;html=1;entryX=0;entryY=0.5;entryDx=0;entryDy=0;exitX=1;exitY=0.3333333333333333;exitDx=0;exitDy=0;exitPerimeter=0;" edge="1" parent="1" source="sRjlCFk46RuaAmub3R1Q-1" target="sRjlCFk46RuaAmub3R1Q-20">
          <mxGeometry width="50" height="50" relative="1" as="geometry">
            <mxPoint x="80" y="360" as="sourcePoint" />
            <mxPoint x="210" y="490" as="targetPoint" />
          </mxGeometry>
        </mxCell>
        <mxCell id="sRjlCFk46RuaAmub3R1Q-22" value="by email" style="ellipse;whiteSpace=wrap;html=1;" vertex="1" parent="1">
          <mxGeometry x="520" y="600" width="240" height="80" as="geometry" />
        </mxCell>
        <mxCell id="sRjlCFk46RuaAmub3R1Q-23" value="" style="endArrow=classic;html=1;exitX=1;exitY=0.5;exitDx=0;exitDy=0;entryX=0;entryY=0.5;entryDx=0;entryDy=0;" edge="1" parent="1" source="sRjlCFk46RuaAmub3R1Q-20" target="sRjlCFk46RuaAmub3R1Q-22">
          <mxGeometry relative="1" as="geometry">
            <mxPoint x="450" y="490" as="sourcePoint" />
            <mxPoint x="530" y="530" as="targetPoint" />
          </mxGeometry>
        </mxCell>
        <mxCell id="sRjlCFk46RuaAmub3R1Q-24" value="Include" style="edgeLabel;resizable=0;html=1;align=center;verticalAlign=middle;" connectable="0" vertex="1" parent="sRjlCFk46RuaAmub3R1Q-23">
          <mxGeometry relative="1" as="geometry" />
        </mxCell>
        <mxCell id="sRjlCFk46RuaAmub3R1Q-25" value="" style="endArrow=classic;html=1;exitX=1;exitY=0.5;exitDx=0;exitDy=0;entryX=0;entryY=0.5;entryDx=0;entryDy=0;" edge="1" parent="1" source="sRjlCFk46RuaAmub3R1Q-20" target="sRjlCFk46RuaAmub3R1Q-27">
          <mxGeometry relative="1" as="geometry">
            <mxPoint x="460" y="500" as="sourcePoint" />
            <mxPoint x="540" y="540" as="targetPoint" />
          </mxGeometry>
        </mxCell>
        <mxCell id="sRjlCFk46RuaAmub3R1Q-26" value="Include" style="edgeLabel;resizable=0;html=1;align=center;verticalAlign=middle;" connectable="0" vertex="1" parent="sRjlCFk46RuaAmub3R1Q-25">
          <mxGeometry relative="1" as="geometry" />
        </mxCell>
        <mxCell id="sRjlCFk46RuaAmub3R1Q-27" value="by telegram" style="ellipse;whiteSpace=wrap;html=1;" vertex="1" parent="1">
          <mxGeometry x="520" y="720" width="240" height="80" as="geometry" />
        </mxCell>
      </root>
    </mxGraphModel>
  </diagram>
</mxfile>
